<svg xmlns="http://www.w3.org/2000/svg" width="1440" height="820" viewBox="0 0 1440 820" role="img" aria-label="AIPPT ????">
<defs>
  <linearGradient id="bg" x1="0" y1="0" x2="1" y2="1">
    <stop offset="0" stop-color="#0F172A"/>
    <stop offset="0.52" stop-color="#1E3A8A"/>
    <stop offset="1" stop-color="#0EA5E9"/>
  </linearGradient>
  <linearGradient id="card" x1="0" y1="0" x2="1" y2="1">
    <stop offset="0" stop-color="#FFFFFF" stop-opacity="0.96"/>
    <stop offset="1" stop-color="#E0F2FE" stop-opacity="0.9"/>
  </linearGradient>
  <filter id="shadow" x="-20%" y="-20%" width="140%" height="140%">
    <feDropShadow dx="0" dy="18" stdDeviation="18" flood-color="#020617" flood-opacity="0.24"/>
  </filter>
  <style>
    .title{font-family:'Microsoft YaHei','PingFang SC','Noto Sans CJK SC',Arial,sans-serif;font-size:58px;font-weight:800;fill:#FFFFFF;letter-spacing:1px}
    .subtitle{font-family:'Microsoft YaHei','PingFang SC','Noto Sans CJK SC',Arial,sans-serif;font-size:26px;font-weight:500;fill:#DBEAFE}
    .h2{font-family:'Microsoft YaHei','PingFang SC','Noto Sans CJK SC',Arial,sans-serif;font-size:34px;font-weight:800;fill:#0F172A}
    .h3{font-family:'Microsoft YaHei','PingFang SC','Noto Sans CJK SC',Arial,sans-serif;font-size:24px;font-weight:800;fill:#0F172A}
    .body{font-family:'Microsoft YaHei','PingFang SC','Noto Sans CJK SC',Arial,sans-serif;font-size:18px;font-weight:500;fill:#334155}
    .small{font-family:'Microsoft YaHei','PingFang SC','Noto Sans CJK SC',Arial,sans-serif;font-size:16px;font-weight:600;fill:#475569}
    .tag{font-family:'Microsoft YaHei','PingFang SC','Noto Sans CJK SC',Arial,sans-serif;font-size:16px;font-weight:700;fill:#0369A1}
  </style>
</defs>
<rect width="1440" height="820" fill="#EFF6FF"/>
<text x="90" y="95" class="h2">????????</text>
<text x="90" y="132" class="body">??????????????????????????????</text>
<g filter="url(#shadow)">
  <rect x="90" y="190" width="1260" height="520" rx="38" fill="#FFFFFF"/>
  <rect x="130" y="235" width="1180" height="70" rx="26" fill="#F1F5F9"/>
  <rect x="155" y="252" width="120" height="36" rx="18" fill="#0EA5E9"/>
  <text x="190" y="276" class="tag" fill="#FFFFFF">??</text>
  <rect x="295" y="252" width="135" height="36" rx="18" fill="#DBEAFE"/>
  <text x="323" y="276" class="tag">????</text>
  <rect x="450" y="252" width="135" height="36" rx="18" fill="#DBEAFE"/>
  <text x="478" y="276" class="tag">????</text>
  <rect x="605" y="252" width="135" height="36" rx="18" fill="#DBEAFE"/>
  <text x="633" y="276" class="tag">????</text>
  <rect x="760" y="252" width="150" height="36" rx="18" fill="#DBEAFE"/>
  <text x="790" y="276" class="tag">?????</text>
  <rect x="150" y="355" width="310" height="250" rx="28" fill="#F8FAFC" stroke="#BFDBFE"/>
  <rect x="180" y="385" width="250" height="118" rx="22" fill="#DBEAFE"/>
  <text x="190" y="555" class="h3">?????????</text>
  <text x="190" y="590" class="body">???? ? ????</text>
  <rect x="565" y="355" width="310" height="250" rx="28" fill="#F8FAFC" stroke="#BFDBFE"/>
  <rect x="595" y="385" width="250" height="118" rx="22" fill="#E0F2FE"/>
  <text x="605" y="555" class="h3">??????</text>
  <text x="605" y="590" class="body">???? ? ????</text>
  <rect x="980" y="355" width="310" height="250" rx="28" fill="#F8FAFC" stroke="#BFDBFE"/>
  <rect x="1010" y="385" width="250" height="118" rx="22" fill="#E0E7FF"/>
  <text x="1020" y="555" class="h3">??????</text>
  <text x="1020" y="590" class="body">???? ? ????</text>
</g>
</svg>