<svg xmlns="http://www.w3.org/2000/svg" width="1440" height="760" viewBox="0 0 1440 760" role="img" aria-label="AIPPT ????">
<defs>
  <linearGradient id="bg" x1="0" y1="0" x2="1" y2="1">
    <stop offset="0" stop-color="#0F172A"/>
    <stop offset="0.52" stop-color="#1E3A8A"/>
    <stop offset="1" stop-color="#0EA5E9"/>
  </linearGradient>
  <linearGradient id="card" x1="0" y1="0" x2="1" y2="1">
    <stop offset="0" stop-color="#FFFFFF" stop-opacity="0.96"/>
    <stop offset="1" stop-color="#E0F2FE" stop-opacity="0.9"/>
  </linearGradient>
  <filter id="shadow" x="-20%" y="-20%" width="140%" height="140%">
    <feDropShadow dx="0" dy="18" stdDeviation="18" flood-color="#020617" flood-opacity="0.24"/>
  </filter>
  <style>
    .title{font-family:'Microsoft YaHei','PingFang SC','Noto Sans CJK SC',Arial,sans-serif;font-size:58px;font-weight:800;fill:#FFFFFF;letter-spacing:1px}
    .subtitle{font-family:'Microsoft YaHei','PingFang SC','Noto Sans CJK SC',Arial,sans-serif;font-size:26px;font-weight:500;fill:#DBEAFE}
    .h2{font-family:'Microsoft YaHei','PingFang SC','Noto Sans CJK SC',Arial,sans-serif;font-size:34px;font-weight:800;fill:#0F172A}
    .h3{font-family:'Microsoft YaHei','PingFang SC','Noto Sans CJK SC',Arial,sans-serif;font-size:24px;font-weight:800;fill:#0F172A}
    .body{font-family:'Microsoft YaHei','PingFang SC','Noto Sans CJK SC',Arial,sans-serif;font-size:18px;font-weight:500;fill:#334155}
    .small{font-family:'Microsoft YaHei','PingFang SC','Noto Sans CJK SC',Arial,sans-serif;font-size:16px;font-weight:600;fill:#475569}
    .tag{font-family:'Microsoft YaHei','PingFang SC','Noto Sans CJK SC',Arial,sans-serif;font-size:16px;font-weight:700;fill:#0369A1}
  </style>
</defs>
<rect width="1440" height="760" rx="0" fill="url(#bg)"/>
<circle cx="1180" cy="120" r="220" fill="#38BDF8" opacity="0.16"/>
<circle cx="160" cy="650" r="260" fill="#A78BFA" opacity="0.14"/>
<text x="96" y="140" class="title">AIPPT</text>
<text x="98" y="190" class="subtitle">AI PPT ?? ? ???? ? ???? ? PPTX/PDF ??</text>
<rect x="96" y="245" width="480" height="64" rx="32" fill="#FFFFFF" opacity="0.12"/>
<text x="128" y="286" class="subtitle">?????????????????????</text>
<g filter="url(#shadow)">
  <rect x="665" y="110" width="610" height="470" rx="34" fill="#F8FAFC"/>
  <rect x="705" y="150" width="530" height="70" rx="22" fill="#DBEAFE"/>
  <text x="735" y="195" class="h3">??????</text>
  <rect x="705" y="250" width="245" height="140" rx="24" fill="#FFFFFF" stroke="#BFDBFE"/>
  <text x="735" y="304" class="h3">????</text>
  <text x="735" y="340" class="body">???????????</text>
  <rect x="990" y="250" width="245" height="140" rx="24" fill="#FFFFFF" stroke="#BFDBFE"/>
  <text x="1020" y="304" class="h3">??? PPT</text>
  <text x="1020" y="340" class="body">??????????</text>
  <rect x="705" y="420" width="530" height="110" rx="24" fill="#EFF6FF" stroke="#93C5FD"/>
  <text x="735" y="470" class="h3">??? ? ???? ? ???? ? ????</text>
</g>
<g>
  <rect x="98" y="370" width="150" height="46" rx="23" fill="#E0F2FE"/>
  <text x="130" y="400" class="tag">?????</text>
  <rect x="268" y="370" width="150" height="46" rx="23" fill="#E0F2FE"/>
  <text x="300" y="400" class="tag">????</text>
  <rect x="438" y="370" width="150" height="46" rx="23" fill="#E0F2FE"/>
  <text x="470" y="400" class="tag">????</text>
</g>
</svg>