<svg xmlns="http://www.w3.org/2000/svg" width="1440" height="900" viewBox="0 0 1440 900" role="img" aria-label="AIPPT ????">
<defs>
  <linearGradient id="bg" x1="0" y1="0" x2="1" y2="1">
    <stop offset="0" stop-color="#0F172A"/>
    <stop offset="0.52" stop-color="#1E3A8A"/>
    <stop offset="1" stop-color="#0EA5E9"/>
  </linearGradient>
  <linearGradient id="card" x1="0" y1="0" x2="1" y2="1">
    <stop offset="0" stop-color="#FFFFFF" stop-opacity="0.96"/>
    <stop offset="1" stop-color="#E0F2FE" stop-opacity="0.9"/>
  </linearGradient>
  <filter id="shadow" x="-20%" y="-20%" width="140%" height="140%">
    <feDropShadow dx="0" dy="18" stdDeviation="18" flood-color="#020617" flood-opacity="0.24"/>
  </filter>
  <style>
    .title{font-family:'Microsoft YaHei','PingFang SC','Noto Sans CJK SC',Arial,sans-serif;font-size:58px;font-weight:800;fill:#FFFFFF;letter-spacing:1px}
    .subtitle{font-family:'Microsoft YaHei','PingFang SC','Noto Sans CJK SC',Arial,sans-serif;font-size:26px;font-weight:500;fill:#DBEAFE}
    .h2{font-family:'Microsoft YaHei','PingFang SC','Noto Sans CJK SC',Arial,sans-serif;font-size:34px;font-weight:800;fill:#0F172A}
    .h3{font-family:'Microsoft YaHei','PingFang SC','Noto Sans CJK SC',Arial,sans-serif;font-size:24px;font-weight:800;fill:#0F172A}
    .body{font-family:'Microsoft YaHei','PingFang SC','Noto Sans CJK SC',Arial,sans-serif;font-size:18px;font-weight:500;fill:#334155}
    .small{font-family:'Microsoft YaHei','PingFang SC','Noto Sans CJK SC',Arial,sans-serif;font-size:16px;font-weight:600;fill:#475569}
    .tag{font-family:'Microsoft YaHei','PingFang SC','Noto Sans CJK SC',Arial,sans-serif;font-size:16px;font-weight:700;fill:#0369A1}
  </style>
</defs>
<rect width="1440" height="900" fill="#F8FAFC"/>
<text x="90" y="95" class="h2">AIPPT ????</text>
<text x="90" y="132" class="body">?? PPT ?????????????????</text>
<g filter="url(#shadow)">
  <rect x="90" y="190" width="380" height="230" rx="30" fill="url(#card)"/>
  <text x="130" y="250" class="h3">AI ??</text>
  <text x="130" y="295" class="body">???????? PPT?????</text>
  <text x="130" y="330" class="body">??????????</text>
  <rect x="530" y="190" width="380" height="230" rx="30" fill="url(#card)"/>
  <text x="570" y="250" class="h3">????</text>
  <text x="570" y="295" class="body">??????????????</text>
  <text x="570" y="330" class="body">?????????????</text>
  <rect x="970" y="190" width="380" height="230" rx="30" fill="url(#card)"/>
  <text x="1010" y="250" class="h3">????</text>
  <text x="1010" y="295" class="body">?????????????</text>
  <text x="1010" y="330" class="body">???????????</text>
  <rect x="90" y="500" width="380" height="230" rx="30" fill="url(#card)"/>
  <text x="130" y="560" class="h3">????</text>
  <text x="130" y="605" class="body">?????????? PPT</text>
  <text x="130" y="640" class="body">????????????</text>
  <rect x="530" y="500" width="380" height="230" rx="30" fill="url(#card)"/>
  <text x="570" y="560" class="h3">PPTX/PDF ??</text>
  <text x="570" y="605" class="body">?????????</text>
  <text x="570" y="640" class="body">?? PowerPoint ? WPS ???</text>
  <rect x="970" y="500" width="380" height="230" rx="30" fill="url(#card)"/>
  <text x="1010" y="560" class="h3">?????</text>
  <text x="1010" y="605" class="body">Docker Compose ????</text>
  <text x="1010" y="640" class="body">?????????????</text>
</g>
</svg>